<?xml version="1.0" encoding="UTF-8" standalone="no"?>
<!-- Generated by IcoMoon.io -->

<svg
   xmlns:dc="http://purl.org/dc/elements/1.1/"
   xmlns:cc="http://creativecommons.org/ns#"
   xmlns:rdf="http://www.w3.org/1999/02/22-rdf-syntax-ns#"
   xmlns:svg="http://www.w3.org/2000/svg"
   xmlns="http://www.w3.org/2000/svg"
   xmlns:sodipodi="http://sodipodi.sourceforge.net/DTD/sodipodi-0.dtd"
   xmlns:inkscape="http://www.inkscape.org/namespaces/inkscape"
   version="1.1"
   width="16"
   height="16"
   viewBox="0 0 16 16"
   id="svg4"
   sodipodi:docname="402-facebook2.svg"
   inkscape:version="0.92.3 (2405546, 2018-03-11)">
  <metadata
     id="metadata10">
    <rdf:RDF>
      <cc:Work
         rdf:about="">
        <dc:format>image/svg+xml</dc:format>
        <dc:type
           rdf:resource="http://purl.org/dc/dcmitype/StillImage" />
      </cc:Work>
    </rdf:RDF>
  </metadata>
  <defs
     id="defs8" />
  <sodipodi:namedview
     pagecolor="#ffffff"
     bordercolor="#666666"
     borderopacity="1"
     objecttolerance="10"
     gridtolerance="10"
     guidetolerance="10"
     inkscape:pageopacity="0"
     inkscape:pageshadow="2"
     inkscape:window-width="1280"
     inkscape:window-height="996"
     id="namedview6"
     showgrid="false"
     inkscape:zoom="14.75"
     inkscape:cx="2.6663047"
     inkscape:cy="8.2264949"
     inkscape:window-x="0"
     inkscape:window-y="0"
     inkscape:window-maximized="1"
     inkscape:current-layer="svg4" />
  <path
     d="M 14.5,-1.5254237e-8 H 1.5 C 0.67499999,-1.5254237e-8 -1.5254235e-8,0.67499999 -1.5254235e-8,1.5 v 13 C -1.5254235e-8,15.325 0.67499999,16 1.5,16 H 8 9.9999998 14.5 C 15.325,16 16,15.325 16,14.5 V 1.5 C 16,0.67499999 15.325,-1.5254237e-8 14.5,-1.5254237e-8 Z"
     id="path2"
     inkscape:connector-curvature="0"
     style="fill:#333333;stroke-width:1"
     sodipodi:nodetypes="sssssccssss" />
  <path
     inkscape:connector-curvature="0"
     style="fill:#ffffff;fill-opacity:1;stroke-width:1"
     d="M 6.7796605,14.35988 V 7.3598795 h -2 V 5.3598792 h 2 v -1 c 0,-1.653 1.3470005,-3 3.0000001,-3 h 2.0000004 v 2 H 9.7796606 c -0.5499996,0 -0.9999996,0.45 -0.9999996,1 v 1 h 3 l -0.5,2.0000003 h -2.5 V 14.35988 Z"
     id="path2-6"
     sodipodi:nodetypes="cccccssccsscccccc" />
</svg>
