<?xml version="1.0" encoding="UTF-8" standalone="no"?>
<!-- Generated by IcoMoon.io -->

<svg
   xmlns:dc="http://purl.org/dc/elements/1.1/"
   xmlns:cc="http://creativecommons.org/ns#"
   xmlns:rdf="http://www.w3.org/1999/02/22-rdf-syntax-ns#"
   xmlns:svg="http://www.w3.org/2000/svg"
   xmlns="http://www.w3.org/2000/svg"
   xmlns:sodipodi="http://sodipodi.sourceforge.net/DTD/sodipodi-0.dtd"
   xmlns:inkscape="http://www.inkscape.org/namespaces/inkscape"
   version="1.1"
   width="16"
   height="16"
   viewBox="0 0 16 16"
   id="svg4"
   sodipodi:docname="430-steam2.svg"
   inkscape:version="0.92.3 (2405546, 2018-03-11)">
  <metadata
     id="metadata10">
    <rdf:RDF>
      <cc:Work
         rdf:about="">
        <dc:format>image/svg+xml</dc:format>
        <dc:type
           rdf:resource="http://purl.org/dc/dcmitype/StillImage" />
      </cc:Work>
    </rdf:RDF>
  </metadata>
  <defs
     id="defs8" />
  <sodipodi:namedview
     pagecolor="#ffffff"
     bordercolor="#666666"
     borderopacity="1"
     objecttolerance="10"
     gridtolerance="10"
     guidetolerance="10"
     inkscape:pageopacity="0"
     inkscape:pageshadow="2"
     inkscape:window-width="1280"
     inkscape:window-height="996"
     id="namedview6"
     showgrid="false"
     inkscape:zoom="10.429825"
     inkscape:cx="10.135598"
     inkscape:cy="5.8638932"
     inkscape:window-x="0"
     inkscape:window-y="0"
     inkscape:window-maximized="1"
     inkscape:current-layer="svg4" />
  <path
     d="M 13.333,0 C 14.8,0 16,1.2 16,2.667 V 13.333 C 16,14.801 14.8,16 13.333,16 H 2.667 C 1.2,16 0,14.801 0,13.333 V 10.161 L 0.002,7.007 V 2.668 c 0,-1.467 1.2,-2.667 2.667,-2.667 h 10.666 z"
     id="path2"
     inkscape:connector-curvature="0"
     style="fill:#333333;fill-opacity:1"
     sodipodi:nodetypes="csssssccsscc" />
  <path
     style="fill:#ffffff;fill-opacity:1"
     d="m -0.00200045,10.16 1.89600015,1.263999 c -0.182,0.987 0.108,2.044 0.872,2.808 1.233,1.233 3.232,1.233 4.465,0 0.757,-0.757 1.049,-1.804 0.876,-2.784 L 11.999,7.964 c 0.723,-0.104 1.419,-0.433 1.975,-0.989 1.367,-1.367 1.367,-3.583 0,-4.95 -1.367,-1.367 -3.583,-1.367 -4.9500003,0 -0.556,0.556 -0.886,1.252 -0.989,1.975 v 0 l -3.198,4.847 c -0.498,0.025 -0.99,0.168 -1.433,0.428 L -4.5e-7,7.006 Z"
     id="path945" />
  <path
     id="path2-7"
     style="fill:#333333;fill-opacity:1"
     d="m 9.9979997,4.499 c 0,-0.828 0.6720003,-1.5 1.5000003,-1.5 0.828,0 1.5,0.672 1.5,1.5 0,0.828 -0.672,1.5 -1.5,1.5 -0.828,0 -1.5000003,-0.672 -1.5000003,-1.5 z m 4.0000003,0 c 0,-1.381 -1.119,-2.5 -2.5,-2.5 -1.381,0 -2.5000003,1.119 -2.5000003,2.5 0,1.381 1.1190003,2.5 2.5000003,2.5 1.381,0 2.5,-1.119 2.5,-2.5 z m -9.2510003,8.562999 c 0.424,0 0.84,-0.205 1.093,-0.585 0.402,-0.603 0.239,-1.418 -0.364,-1.819999 l -1.032,-0.688 c 0.177,-0.048 0.362,-0.074 0.554,-0.074 1.162,0 2.105,0.941999 2.105,2.104999 0,1.163 -0.942,2.105 -2.105,2.105 -1.131,0 -2.054,-0.893 -2.102,-2.012 l 1.124,0.749 c 0.224,0.149 0.477,0.221 0.727,0.221 z" />
</svg>
