<?xml version="1.0" encoding="UTF-8" standalone="no"?>
<!-- Created with Inkscape (http://www.inkscape.org/) -->

<svg
   xmlns:dc="http://purl.org/dc/elements/1.1/"
   xmlns:cc="http://creativecommons.org/ns#"
   xmlns:rdf="http://www.w3.org/1999/02/22-rdf-syntax-ns#"
   xmlns:svg="http://www.w3.org/2000/svg"
   xmlns="http://www.w3.org/2000/svg"
   xmlns:sodipodi="http://sodipodi.sourceforge.net/DTD/sodipodi-0.dtd"
   xmlns:inkscape="http://www.inkscape.org/namespaces/inkscape"
   version="1.1"
   id="svg2"
   xml:space="preserve"
   width="384"
   height="384"
   viewBox="0 0 384 384"
   sodipodi:docname="shinola_logo_W.svg"
   inkscape:version="0.92.3 (2405546, 2018-03-11)"
   inkscape:export-filename="/var/www/html/Reproductions_12-10-18/shinola_logo_W.png"
   inkscape:export-xdpi="96"
   inkscape:export-ydpi="96"><metadata
     id="metadata8"><rdf:RDF><cc:Work
         rdf:about=""><dc:format>image/svg+xml</dc:format><dc:type
           rdf:resource="http://purl.org/dc/dcmitype/StillImage" /><dc:title /></cc:Work></rdf:RDF></metadata><defs
     id="defs6"><clipPath
       clipPathUnits="userSpaceOnUse"
       id="clipPath18"><path
         d="m 123.732,250.266 h 58.536 v 19.544 h -58.536 z"
         id="path16"
         inkscape:connector-curvature="0" /></clipPath></defs><sodipodi:namedview
     pagecolor="#ffffff"
     bordercolor="#666666"
     borderopacity="1"
     objecttolerance="10"
     gridtolerance="10"
     guidetolerance="10"
     inkscape:pageopacity="0"
     inkscape:pageshadow="2"
     inkscape:window-width="1280"
     inkscape:window-height="996"
     id="namedview4"
     showgrid="false"
     inkscape:zoom="0.98251975"
     inkscape:cx="130.94466"
     inkscape:cy="145.39806"
     inkscape:window-x="0"
     inkscape:window-y="0"
     inkscape:window-maximized="1"
     inkscape:current-layer="g10" /><g
     id="g10"
     inkscape:groupmode="layer"
     inkscape:label="shinola_watch_manual_warranty_english"
     transform="matrix(1.3333333,0,0,-1.3333333,0,384)"><g
       id="g20"
       transform="matrix(2.326631,0,0,2.326631,134.15995,160.67762)"
       style="fill:#ffff99;stroke:none"
       inkscape:export-xdpi="96"
       inkscape:export-ydpi="96"><path
         d="m 0,0 v -8.739 l 2.458,0.032 v 4.365 l 3.201,-4.355 2.156,-0.005 v 8.667 L 5.972,-0.041 H 5.353 v -4.353 l -3.202,4.368 z m -4.583,0.099 v -8.933 l 2.456,0.056 v 8.821 z m 17.72,-7.106 c -0.483,0.003 -0.839,0.196 -1.021,0.41 -0.234,0.267 -0.376,0.555 -0.376,2.189 0,1.636 0.142,1.94 0.376,2.201 0.182,0.216 0.538,0.4 1.006,0.402 0.461,0 0.817,-0.167 0.999,-0.38 0.229,-0.264 0.376,-0.568 0.376,-2.223 0,-1.653 -0.147,-1.949 -0.376,-2.209 -0.182,-0.208 -0.538,-0.39 -0.984,-0.39 M 13.25,0.168 C 11.87,0.142 11.005,-0.222 10.259,-0.879 9.178,-1.832 9.227,-3.072 9.227,-4.408 c 0,-1.333 -0.049,-2.577 1.032,-3.527 0.746,-0.66 1.611,-1.02 2.863,-1.045 h 0.028 c 1.292,0 2.111,0.334 2.824,0.958 1.075,0.938 1.031,2.231 1.031,3.614 0,1.385 0.044,2.678 -1.031,3.617 -0.719,0.627 -1.543,0.959 -2.724,0.959 M 20.994,0.274 18.538,0.179 V -8.91 c 2.456,-0.086 3.69,-0.137 6.138,-0.26 v 2.108 l -3.682,0.092 z m -35.225,0.21 v -9.698 l 2.459,0.123 v 3.745 l 2.61,0.024 v -3.663 l 2.456,0.091 v 9.058 l -2.456,0.09 v -3.556 l -2.61,0.027 v 3.639 z m 44.952,-6.35 -1.739,0.031 0.897,2.703 z m 0.04,6.659 -1.889,-0.119 -2.683,-0.158 v -1.871 l 1.982,0.066 c -0.958,-2.641 -1.932,-5.28 -2.936,-7.906 l 2.568,-0.139 0.492,1.46 3.069,-0.133 0.464,-1.581 2.565,-0.183 c -1.171,3.535 -2.379,7.057 -3.632,10.564 m -49.785,0.124 h -0.101 c -2.218,0 -3.551,-1.211 -3.551,-3.158 0,-0.927 0.279,-2.648 2.694,-3.097 l 1.207,-0.159 c 0.319,-0.036 0.536,-0.133 0.66,-0.262 0.136,-0.157 0.194,-0.354 0.194,-0.598 0,-0.531 -0.379,-0.867 -1.176,-0.949 l -0.369,-0.017 c -0.759,0 -1.626,0.225 -2.071,0.688 -0.631,-0.692 -0.985,-1.068 -1.61,-1.794 0.847,-0.899 2.025,-1.214 3.424,-1.214 l 0.301,0.007 c 2.15,0.069 3.918,1.379 3.918,3.391 0,0.917 -0.221,1.648 -0.747,2.17 -0.42,0.415 -1.068,0.712 -1.964,0.851 l -1.207,0.193 c -0.349,0.051 -0.56,0.185 -0.684,0.319 -0.154,0.167 -0.197,0.358 -0.197,0.494 0,0.424 0.311,0.837 1.034,0.921 h 0.042 c 0.584,0 1.4,-0.175 1.949,-0.746 l 1.659,1.6 c -0.852,0.885 -2.034,1.337 -3.405,1.36"
         style="fill:#ffffff;fill-opacity:1;fill-rule:nonzero;stroke:none"
         id="path22"
         inkscape:connector-curvature="0" /></g></g></svg>